<?xml version="1.0" encoding="utf-8"?>
<!-- Generator: Adobe Illustrator 25.3.1, SVG Export Plug-In . SVG Version: 6.00 Build 0)  -->
<svg version="1.1" id="Layer_1" xmlns="http://www.w3.org/2000/svg" xmlns:xlink="http://www.w3.org/1999/xlink" x="0px" y="0px"
	 viewBox="0 0 211.8 36" style="enable-background:new 0 0 211.8 36;" xml:space="preserve">
<style type="text/css">
	.st0{fill:#0F172A;}
	.st1{fill:#0EA5EA;}
	.st2{opacity:0.3;}
	.st3{fill:#1166BC;}
	.st4{fill:#FFFFFF;}
	.st5{fill:#344161;}
</style>
<g>
	<g>
		<path class="st1" d="M3.6,7.6l14.9,10.9L0,18.5c0-1.9,0.3-3.8,0.9-5.7C1.5,10.8,2.4,9.1,3.6,7.6z"/>
		<path class="st1" d="M18.4,18.4L12.8,36l0,0c-3.9-1.3-7-3.7-9.3-6.7L18.4,18.4z"/>
		<path class="st1" d="M18.4,18.4l15,10.8c-2.3,3.2-5.6,5.6-9.3,6.8L18.4,18.4z"/>
		<path class="st1" d="M33.3,7.6c2.3,3.1,3.6,7,3.6,10.9l-18.4-0.1L33.3,7.6z"/>
		<path class="st1" d="M24.1,0.9L24.1,0.9l-5.7,17.5L12.7,0.9C16.3-0.3,20.3-0.4,24.1,0.9z"/>
	</g>
	<g class="st2">
		<path class="st1" d="M15.6,19.4l-9.7,7.1c-0.7-1.1-1.2-2.2-1.6-3.4c-0.4-1.2-0.6-2.4-0.7-3.7L15.6,19.4z"/>
		<path class="st1" d="M22.2,32.9c-1.2,0.3-2.5,0.5-3.7,0.5c-1.3,0-2.5-0.2-3.7-0.5l3.7-11.4L22.2,32.9z"/>
		<path class="st1" d="M33.4,19.3c-0.2,2.5-1,5-2.3,7.1l-9.7-7.1L33.4,19.3z"/>
		<path class="st1" d="M30,8.9l-9.7,7L24,4.5C26.3,5.5,28.4,7,30,8.9z"/>
		<path class="st1" d="M16.7,15.9L7,8.9c1.6-2,3.7-3.5,6-4.4L16.7,15.9z"/>
	</g>
	<circle class="st3" cx="18.5" cy="18.5" r="10.7"/>
	<g>
		<g>
			<path class="st4" d="M12.7,14.8h2c2.1,0,3.5,1.1,3.5,3.5c0,2.4-1.4,3.5-3.4,3.5h-2.1V14.8z M14.6,20.6c1.2,0,2-0.6,2-2.3
				c0-1.7-0.8-2.2-2-2.2h-0.3v4.4H14.6z"/>
			<path class="st4" d="M19.3,14.8h1.6v2.9h0l2.1-2.9h1.7l-2.1,2.8l2.5,4.2h-1.7l-1.7-3L20.9,20v1.9h-1.6V14.8z"/>
		</g>
	</g>
</g>
<g>
	<path class="st5" d="M44.9,25.1V14h4.9c1.7,0,2.9,0.6,3.7,1.8c0.6,0.9,0.8,2,0.8,3.4c0,1.5-0.3,2.7-0.9,3.8c-0.8,1.3-2,2-3.7,2
		H44.9z M47.2,15.9v7.2h2.2c0.9,0,1.5-0.4,2-1.2c0.4-0.6,0.5-1.5,0.5-2.6c0-1.4-0.3-2.4-0.9-3c-0.4-0.4-0.9-0.5-1.6-0.5H47.2z"/>
	<path class="st5" d="M65.3,14v7.2c0,1.4-0.4,2.5-1.2,3.2c-0.8,0.7-1.9,1-3.3,1c-0.6,0-1.2-0.1-1.8-0.3c-0.7-0.2-1.3-0.6-1.8-1.1
		c-0.6-0.7-0.9-1.6-0.9-2.7V14h2.4v7.2c0,0.7,0.2,1.3,0.6,1.7c0.4,0.4,0.8,0.6,1.4,0.6c0.8,0,1.3-0.2,1.7-0.5
		c0.4-0.4,0.5-0.9,0.5-1.6V14H65.3z"/>
	<path class="st5" d="M72.9,20.9v4.2h-2.3v-4.2L66.7,14h2.7l2.3,4.8l2.2-4.8h2.6L72.9,20.9z"/>
	<path class="st5" d="M85.4,21.3v3.8h-2.3V14h2.3v4.5l4.2-4.5h3l-4.5,4.5l4.8,6.5h-3l-3.4-4.9L85.4,21.3z"/>
	<path class="st5" d="M101.1,20.1h-4.3v5h-2.3V14h2.3v4.2h4.3V14h2.3v11h-2.3V20.1z"/>
	<path class="st5" d="M108.2,22.8l-0.8,2.3H105l3.9-11h2.7l3.9,11H113l-0.7-2.3H108.2z M108.8,20.9h2.8l-1.4-4.4L108.8,20.9z"/>
	<path class="st5" d="M123.8,14h2.2v11h-2.3l-4.5-7.9l0,7.9H117V14h2.4l4.4,7.7L123.8,14z"/>
	<path class="st5" d="M135.2,20.1h-4.3v5h-2.3V14h2.3v4.2h4.3V14h2.3v11h-2.3V20.1z"/>
	<path class="st5" d="M140.2,16V14h2.2v1.6c0,0.9-0.2,1.5-0.7,2c-0.3,0.3-0.8,0.5-1.4,0.6v-0.8c0.5-0.2,0.8-0.4,1-0.6
		c0.1-0.2,0.2-0.5,0.2-0.8H140.2z"/>
	<path class="st5" d="M144.2,21.7h2.2c0,0.5,0.1,0.8,0.4,1.1c0.4,0.4,1,0.7,1.9,0.7c0.7,0,1.2-0.1,1.6-0.3c0.5-0.2,0.8-0.6,0.8-1.2
		c0-0.4-0.2-0.7-0.5-0.9c-0.3-0.2-0.7-0.3-1.5-0.5l-1.2-0.3c-1.2-0.3-2-0.5-2.4-0.8c-0.7-0.5-1.1-1.3-1.1-2.4c0-0.9,0.3-1.6,0.8-2.2
		c0.7-0.8,1.9-1.2,3.5-1.2c1.5,0,2.6,0.4,3.4,1.3c0.6,0.7,0.9,1.4,0.9,2.3h-2.2c-0.1-0.4-0.2-0.8-0.4-1c-0.4-0.4-1-0.6-1.9-0.6
		c-0.5,0-1,0.1-1.3,0.3c-0.4,0.2-0.6,0.6-0.6,1c0,0.4,0.1,0.7,0.4,0.9c0.2,0.1,0.4,0.2,0.8,0.3l2.7,0.6c0.9,0.2,1.6,0.5,2,0.9
		c0.6,0.5,0.9,1.2,0.9,2.1c0,1.1-0.4,2-1.1,2.6c-0.8,0.7-1.9,1-3.3,1c-1.8,0-3.1-0.4-3.9-1.3C144.5,23.4,144.2,22.6,144.2,21.7z"/>
	<path class="st5" d="M159.5,21.7h2.2c0,0.5,0.1,0.8,0.4,1.1c0.4,0.4,1,0.7,1.9,0.7c0.7,0,1.2-0.1,1.6-0.3c0.5-0.2,0.8-0.6,0.8-1.2
		c0-0.4-0.2-0.7-0.5-0.9c-0.3-0.2-0.7-0.3-1.5-0.5l-1.2-0.3c-1.2-0.3-2-0.5-2.4-0.8c-0.7-0.5-1.1-1.3-1.1-2.4c0-0.9,0.3-1.6,0.8-2.2
		c0.7-0.8,1.9-1.2,3.5-1.2c1.5,0,2.6,0.4,3.4,1.3c0.6,0.7,0.9,1.4,0.9,2.3H166c-0.1-0.4-0.2-0.8-0.4-1c-0.4-0.4-1-0.6-1.9-0.6
		c-0.5,0-1,0.1-1.3,0.3c-0.4,0.2-0.6,0.6-0.6,1c0,0.4,0.1,0.7,0.4,0.9c0.2,0.1,0.4,0.2,0.8,0.3l2.7,0.6c0.9,0.2,1.6,0.5,2,0.9
		c0.6,0.5,0.9,1.2,0.9,2.1c0,1.1-0.4,2-1.1,2.6c-0.8,0.7-1.9,1-3.3,1c-1.8,0-3.1-0.4-3.9-1.3C159.8,23.4,159.5,22.6,159.5,21.7z"/>
	<path class="st5" d="M175.5,16v9.1h-2.3V16h-3.4V14h9V16H175.5z"/>
	<path class="st5" d="M180.1,19.5c0-1.6,0.3-2.8,1-3.8c0.5-0.8,1.3-1.3,2.2-1.6c0.7-0.2,1.4-0.4,2.1-0.4c0.7,0,1.4,0.1,2,0.4
		c0.9,0.3,1.7,0.9,2.2,1.6c0.7,1,1,2.2,1,3.8c0,1.6-0.3,2.8-1,3.8c-0.5,0.8-1.3,1.3-2.2,1.7c-0.7,0.2-1.3,0.4-2,0.4
		c-0.7,0-1.4-0.1-2-0.4c-0.9-0.4-1.7-0.9-2.2-1.6C180.5,22.4,180.1,21.1,180.1,19.5z M182.4,19.5c0,1.4,0.3,2.4,1,3.1
		c0.5,0.5,1.2,0.8,2,0.8c0.8,0,1.4-0.3,2-0.8c0.7-0.7,1-1.7,1-3.1c0-1.4-0.3-2.4-1-3.1c-0.5-0.5-1.2-0.8-2-0.8c-0.8,0-1.4,0.3-2,0.8
		C182.8,17.1,182.4,18.2,182.4,19.5z"/>
	<path class="st5" d="M192.3,25.1V14h5.6c1.3,0,2.2,0.4,2.8,1.2c0.4,0.6,0.6,1.2,0.6,1.9c0,0.6-0.2,1.2-0.5,1.7
		c-0.3,0.5-0.7,0.8-1.3,1c0.5,0.2,0.9,0.5,1,0.8c0.2,0.4,0.4,1.1,0.4,2c0,0.8,0,1.3,0,1.6c0,0.3,0.2,0.5,0.5,0.6v0.3H199
		c-0.1-0.3-0.1-0.6-0.2-0.9c0-0.3-0.1-0.8-0.1-1.3c0-0.8-0.1-1.4-0.3-1.6c-0.2-0.3-0.7-0.5-1.6-0.5h-2.4v4.3H192.3z M194.5,18.9h2.7
		c0.6,0,1.1-0.1,1.3-0.4c0.3-0.2,0.4-0.6,0.4-1.2c0-0.4-0.1-0.7-0.3-0.9c-0.3-0.3-0.7-0.5-1.3-0.5h-2.9V18.9z"/>
	<path class="st5" d="M207.9,20.9v4.2h-2.3v-4.2l-3.8-6.9h2.7l2.3,4.8L209,14h2.6L207.9,20.9z"/>
</g>
</svg>
